<svg width="28" height="26" viewBox="0 0 28 26" fill="none" xmlns="http://www.w3.org/2000/svg">
<path d="M10.0879 15.8992C10.3174 15.8408 10.4104 15.8241 10.4996 15.7946C12.8117 15.0139 15.135 14.2711 17.4921 13.6413C17.9721 13.5132 18.0658 13.357 17.8483 12.8909C16.8771 10.8005 15.9405 8.69425 14.9843 6.59705C14.9175 6.45001 14.8605 6.28099 14.7038 6.28099C14.5463 6.28099 14.4976 6.44698 14.4338 6.58265C13.7596 8.02121 13.0907 9.46204 12.4195 10.9013C11.6598 12.5301 10.8993 14.1589 10.0879 15.8992ZM24.4516 25.988C24.2934 25.988 24.1216 25.9827 23.9199 25.8697C23.6567 25.7227 23.5449 25.4559 23.4924 25.3392C21.9648 21.9437 20.4049 18.564 18.8892 15.1632C18.6613 14.6516 18.4498 14.5114 17.9046 14.6827C16.2914 15.1897 14.6258 15.5217 13.0457 16.1417C11.5915 16.7117 11.4738 17.1838 12.7412 18.0896C13.2586 18.4594 13.7679 18.846 14.2088 19.3114C15.129 20.2823 15.072 21.2282 13.9936 22.0195C11.596 23.7771 8.87221 24.7366 5.98117 25.2513C4.49852 25.5158 3.00613 25.609 1.50774 25.371C0.926527 25.2793 0.333319 25.152 0.0850872 24.5343C-0.160895 23.9234 0.172831 23.4269 0.496808 22.9222C1.15676 21.8936 2.24193 21.9831 3.22061 21.8322C3.54984 21.7815 3.62333 22.0952 3.42535 22.3583C3.22886 22.6205 2.97163 22.8365 2.7789 23.1003C2.38067 23.6437 2.48192 23.9219 3.14337 24.0765C3.80632 24.2311 4.48802 24.2038 5.15398 24.1189C6.9471 23.8908 8.65623 23.3981 10.1389 22.2969C10.9608 21.6867 10.9593 21.2843 10.1344 20.6991C9.42717 20.1966 8.69522 19.7282 7.98802 19.225C7.31232 18.7437 7.17208 18.1828 7.49681 17.4552C9.30643 13.4003 11.1153 9.34531 12.9227 5.28886C13.6014 3.76618 14.2808 2.24273 14.949 0.714742C15.123 0.319101 15.3195 -0.00226185 15.8167 1.19927e-05C16.3057 0.00228584 16.5209 0.307732 16.7009 0.703373C19.3137 6.45987 21.9318 12.2133 24.5476 17.9676C25.647 20.3861 26.7457 22.8047 27.8414 25.2248C27.9883 25.5499 28.0401 25.7454 27.9674 25.8584C27.8691 26.0107 27.6171 26.0031 27.3441 25.9978C27.0067 25.9918 26.5027 25.9865 25.8443 25.9971C25.383 25.988 24.9128 25.9971 24.4516 25.988Z" fill="#022B54"/>
</svg>
